<?xml version="1.0" encoding="UTF-8"?>
<svg width="60px" height="60px" viewBox="0 0 60 60" version="1.1" xmlns="http://www.w3.org/2000/svg" xmlns:xlink="http://www.w3.org/1999/xlink">
    <!-- Generator: Sketch 50.2 (55047) - http://www.bohemiancoding.com/sketch -->
    <title>chrome</title>
    <desc>Created with Sketch.</desc>
    <defs></defs>
    <g id="Page-1" stroke="none" stroke-width="1" fill="none" fill-rule="evenodd">
        <g id="全局-浏览器不支持" transform="translate(-782.000000, -643.000000)">
            <g id="Group-11" transform="translate(640.000000, 580.000000)">
                <g id="chrome" transform="translate(117.000000, 63.000000)">
                    <g transform="translate(25.000000, 0.000000)">
                        <path d="M30.0763529,41.0145703 C24.1171765,41.0145703 19.2690588,36.1849219 19.2690588,30.2494922 C19.2690588,24.3130078 24.1171765,19.4838281 30.0763529,19.4838281 C36.0355294,19.4838281 40.8841176,24.3130078 40.8841176,30.2494922 C40.8842353,36.1849219 36.0356471,41.0145703 30.0763529,41.0145703 L30.0763529,41.0145703 Z" id="Shape" fill="#5C94F2"></path>
                        <path d="M34.6295294,42.9274219 C33.1171765,43.4755078 31.5332941,43.7523047 29.9098824,43.7523047 C26.7245882,43.7523047 23.6147059,42.6383203 21.1538824,40.61625 C19.1575294,38.9755078 17.6696471,36.8162109 16.8496471,34.3665234 L16.8452941,34.3519922 L4.93494118,13.8030469 C0.656117647,20.3582812 -0.862117647,28.1745703 0.660941176,35.8618359 C2.21223529,43.6907812 6.73070588,50.4488672 13.3847059,54.8925 C16.8510588,57.2069531 20.6911765,58.7506641 24.8011765,59.4825 L34.6295294,42.9274219 L34.6295294,42.9274219 Z" id="Path" fill="#32AC71"></path>
                        <path d="M57.0957647,16.7925 C49.6572941,1.88460937 31.4942353,-4.19402344 16.5282353,3.21539062 C12.6548235,5.13304687 9.25129412,7.85203125 6.53305882,11.1772266 L16.5943529,28.5364453 C17.2472941,23.4943359 20.7510588,19.0371094 25.94,17.4113672 C27.1918824,17.0194922 28.4943529,16.8108984 29.806,16.7925 L57.0957647,16.7925 Z" id="Path" fill="#E56B60"></path>
                        <path d="M29.9590588,59.9414062 C37.4987059,59.9414062 44.7147059,57.1249219 50.2747059,52.0115625 C55.8638824,46.8719531 59.2581176,39.8777344 59.8321176,32.3179687 C60.1603529,27.9883594 59.5161176,23.5553906 57.9682353,19.4838281 L38.2894118,19.4838281 C41.6003529,22.0945312 43.5430588,26.0841797 43.5236471,30.3119531 C43.5095294,33.3558984 42.4617647,36.3473437 40.5632941,38.7491016 L28.0187059,59.8792969 C28.6648235,59.9205469 29.3157647,59.9414062 29.958,59.9414062 L29.9590588,59.9414062 L29.9590588,59.9414062 Z" id="Path" fill="#FAD56D"></path>
                    </g>
                </g>
            </g>
        </g>
    </g>
</svg>