<?xml version="1.0" encoding="UTF-8"?>
<svg width="800px" height="800px" viewBox="0 0 800 800" version="1.1" xmlns="http://www.w3.org/2000/svg" xmlns:xlink="http://www.w3.org/1999/xlink">
    <!-- Generator: Sketch 50.2 (55047) - http://www.bohemiancoding.com/sketch -->
    <title>Combined Shape</title>
    <desc>Created with Sketch.</desc>
    <defs></defs>
    <g id="Page-1" stroke="none" stroke-width="1" fill="none" fill-rule="evenodd">
        <path d="M400,0 C620.929032,0 800,179.096774 800,400 C800,620.929032 620.929032,800 400,800 C179.083871,800 0,620.916129 0,400 C0,179.096774 179.083871,0 400,0 Z M277.293656,557.557558 L277.293656,577.977978 C277.293656,584.117451 279.524519,589.322656 283.986245,593.593594 C288.447972,597.864531 294.090743,600 300.91456,600 L435.947399,600 C443.55858,600 449.332579,597.664331 453.269396,592.992993 C457.206214,588.321655 459.174623,583.31665 459.174623,577.977978 L459.174623,557.557558 L277.293656,557.557558 Z M521.77002,390.590591 L521.77002,388.188188 C521.77002,382.849516 520.785816,378.845512 518.817407,376.176176 C516.848998,373.50684 514.683749,371.504838 512.321658,370.17017 C509.434659,368.835502 506.416432,367.901235 503.266978,367.367367 L235.169709,367.367367 C231.7578,367.901235 228.608346,368.835502 225.721347,370.17017 C223.359256,371.504838 221.25962,373.50684 219.422439,376.176176 C217.585257,378.845512 216.666667,382.849516 216.666667,388.188188 L216.666667,430.23023 C216.666667,449.983317 218.766303,465.598932 222.965575,477.077077 C227.164847,488.555222 232.282709,497.964631 238.319163,505.305305 C244.355616,512.645979 250.916979,519.119119 258.00325,524.724725 C265.089521,530.33033 271.519657,537.270604 277.293656,545.545546 L459.174623,545.545546 C463.636349,540.740741 468.032462,536.40307 472.362961,532.532533 C476.69346,528.661995 480.958346,524.924925 485.157618,521.321321 C489.35689,517.717718 493.293707,513.980647 496.96807,510.11011 C500.642433,506.239573 503.923114,501.901902 506.810114,497.097097 C514.946203,497.630964 522.885452,497.897898 530.62786,497.897898 C538.370267,497.897898 545.587766,496.36303 552.280356,493.293293 C558.972945,490.223557 564.878171,485.218552 569.996034,478.278278 C575.113897,471.338005 578.985101,461.194528 581.609646,447.847848 C583.971736,435.035035 583.906123,424.891558 581.412805,417.417417 C578.919487,409.943277 574.785829,404.204204 569.01183,400.2002 C563.237831,396.196196 556.151559,393.593594 547.753015,392.392392 C539.354472,391.191191 530.693473,390.590591 521.77002,390.590591 Z M299.733515,336.136136 C301.045788,322.789456 302.35806,313.113113 303.670333,307.107107 C304.982605,301.101101 306.819787,296.096096 309.181877,292.092092 C311.281513,288.355022 313.643604,284.484484 316.268149,280.48048 C318.892694,276.476476 321.517238,272.405739 324.141783,268.268268 C326.766328,264.130797 329.062805,260.126793 331.031214,256.256256 C332.999623,252.385719 334.246282,248.581915 334.771191,244.844845 C335.558554,240.840841 336.345918,236.236236 337.133281,231.031031 C337.920645,225.825826 338.183099,220.887554 337.920645,216.216216 C337.65819,211.544878 336.608372,207.674341 334.771191,204.604605 C332.934009,201.534868 329.915782,200 325.71651,200 C321.517238,200 318.499012,200.266934 316.66183,200.800801 C314.824649,201.334668 313.446763,202.736069 312.528172,205.005005 C311.609581,207.273941 310.953445,210.744077 310.559763,215.415415 C310.166081,220.086753 309.444332,226.426426 308.394514,234.434434 C307.60715,240.04004 305.769969,244.911578 302.882969,249.049049 C299.99597,253.18652 296.780902,257.457457 293.237766,261.861862 C289.694631,266.266266 286.282722,271.137804 283.002041,276.476476 C279.72136,281.815148 277.424883,288.355022 276.11261,296.096096 C275.325247,301.434768 274.47227,307.107107 273.553679,313.113113 C272.635088,319.119119 272.175793,326.79346 272.175793,336.136136 C272.175793,340.14014 273.553679,343.143143 276.309451,345.145145 C279.065223,347.147147 282.08345,348.148148 285.364131,348.148148 C288.644813,348.148148 291.728653,347.147147 294.615652,345.145145 C297.502652,343.143143 299.208606,340.14014 299.733515,336.136136 Z M374.139365,336.136136 C375.451638,322.789456 376.76391,313.113113 378.076183,307.107107 C379.388455,301.101101 381.225637,296.096096 383.587727,292.092092 C385.687363,288.355022 388.115067,284.484484 390.870839,280.48048 C393.626612,276.476476 396.251157,272.405739 398.744474,268.268268 C401.237792,264.130797 403.468655,260.126793 405.437064,256.256256 C407.405473,252.385719 408.783359,248.581915 409.570722,244.844845 C410.358086,240.840841 411.079836,236.236236 411.735972,231.031031 C412.392108,225.825826 412.588949,220.887554 412.326495,216.216216 C412.06404,211.544878 411.079836,207.674341 409.373882,204.604605 C407.667927,201.534868 404.715314,200 400.516042,200 C396.31677,200 393.298544,200.266934 391.461362,200.800801 C389.624181,201.334668 388.246295,202.736069 387.327704,205.005005 C386.409113,207.273941 385.687363,210.744077 385.162454,215.415415 C384.637545,220.086753 383.850182,226.426426 382.800364,234.434434 C382.013,240.04004 380.175819,244.911578 377.288819,249.049049 C374.40182,253.18652 371.252366,257.457457 367.840457,261.861862 C364.428549,266.266266 361.082254,271.137804 357.801573,276.476476 C354.520892,281.815148 352.224415,288.355022 350.912142,296.096096 C349.862324,301.434768 348.87812,307.107107 347.959529,313.113113 C347.040938,319.119119 346.581643,326.79346 346.581643,336.136136 C346.581643,340.14014 347.959529,343.143143 350.715301,345.145145 C353.471074,347.147147 356.4893,348.148148 359.769982,348.148148 C363.050663,348.148148 366.134503,347.147147 369.021503,345.145145 C371.908502,343.143143 373.614456,340.14014 374.139365,336.136136 Z M448.938897,336.136136 C449.726261,329.462796 450.382397,323.790457 450.907306,319.119119 C451.432215,314.447781 452.022737,310.443777 452.678874,307.107107 C453.33501,303.770437 454.122373,300.967634 455.040964,298.698699 C455.959555,296.429763 457.074987,294.227561 458.387259,292.092092 C460.486895,288.355022 462.848985,284.484484 465.47353,280.48048 C468.098075,276.476476 470.657007,272.405739 473.150325,268.268268 C475.643642,264.130797 477.874505,260.126793 479.842914,256.256256 C481.811323,252.385719 483.189209,248.581915 483.976573,244.844845 C484.763936,240.840841 485.5513,236.236236 486.338663,231.031031 C487.126027,225.825826 487.388481,220.887554 487.126027,216.216216 C486.863572,211.544878 485.813754,207.674341 483.976573,204.604605 C482.139391,201.534868 479.121164,200 474.921892,200 C470.72262,200 467.704394,200.266934 465.867212,200.800801 C464.030031,201.334668 462.652145,202.736069 461.733554,205.005005 C460.814963,207.273941 460.158827,210.744077 459.765145,215.415415 C459.371463,220.086753 458.649714,226.426426 457.599896,234.434434 C456.812532,240.04004 454.975351,244.911578 452.088351,249.049049 C449.201352,253.18652 445.986284,257.457457 442.443148,261.861862 C438.900013,266.266266 435.488104,271.137804 432.207423,276.476476 C428.926742,281.815148 426.630265,288.355022 425.317992,296.096096 C424.268174,301.434768 423.349584,307.107107 422.56222,313.113113 C421.774857,319.119119 421.381175,326.79346 421.381175,336.136136 C421.381175,340.14014 422.759061,343.143143 425.514833,345.145145 C428.270605,347.147147 431.288832,348.148148 434.569513,348.148148 C437.850195,348.148148 440.934035,347.147147 443.821034,345.145145 C446.708034,343.143143 448.413988,340.14014 448.938897,336.136136 Z" id="Combined-Shape" fill="#409EFF" fill-rule="nonzero"></path>
    </g>
</svg>