<?xml version="1.0" encoding="UTF-8"?>
<svg width="60px" height="60px" viewBox="0 0 60 60" version="1.1" xmlns="http://www.w3.org/2000/svg" xmlns:xlink="http://www.w3.org/1999/xlink">
    <!-- Generator: Sketch 50.2 (55047) - http://www.bohemiancoding.com/sketch -->
    <title>safari</title>
    <desc>Created with Sketch.</desc>
    <defs>
        <radialGradient cx="50%" cy="50%" fx="50%" fy="50%" r="83.500243%" gradientTransform="translate(0.500000,0.500000),scale(1.000000,0.999955),rotate(96.602666),translate(-0.500000,-0.500000)" id="radialGradient-1">
            <stop stop-color="#00C1E5" offset="0%"></stop>
            <stop stop-color="#0050DE" offset="100%"></stop>
        </radialGradient>
    </defs>
    <g id="Page-1" stroke="none" stroke-width="1" fill="none" fill-rule="evenodd">
        <g id="全局-浏览器不支持" transform="translate(-1081.000000, -643.000000)">
            <g id="Group-11" transform="translate(640.000000, 580.000000)">
                <g id="FireFox" transform="translate(421.000000, 63.000000)">
                    <g id="safari" transform="translate(20.000000, 0.000000)">
                        <path d="M60,30 C60,46.5728572 46.5728572,60 30,60 C13.4271428,60 0,46.5728572 0,30 C0,13.4271428 13.4271428,0 30,0 C46.5728572,0 60,13.4271428 60,30 Z" id="Shape" fill="#E4E7ED" fill-rule="nonzero"></path>
                        <path d="M56.9952112,30.0024167 C56.9952112,34.9495166 55.6369943,39.8192803 53.0679825,44.0123523 C52.6909685,43.8238453 51.1055765,42.6903867 50.8010652,42.6903867 C50.5322737,42.6955324 50.3156094,42.9121967 50.3104637,43.1809882 C50.3104637,43.6715897 52.0843627,44.5778732 52.5387129,44.8437164 C48.7893503,50.5131858 43.0489512,54.56924 36.4527837,56.2097207 L35.8485947,53.679377 C35.8099266,53.3386144 35.5851683,53.302363 35.2830738,53.302363 C35.0196473,53.302363 34.8673917,53.679377 34.9060598,53.867884 L35.5102488,56.434479 C33.6976817,56.811493 31.8464464,56.9999999 29.997628,57 C25.0505281,57 20.1807644,55.6031149 15.9514411,53.0341031 C16.1786162,52.6570891 17.6141694,50.5786788 17.6141693,50.2765843 C17.6090236,50.0077928 17.3923593,49.7911285 17.1235678,49.7859828 C16.5942982,49.7859828 15.4608396,52.0529001 15.1224938,52.5048335 C9.39389662,48.7059229 5.3184945,42.8765175 3.71782132,36.1917293 L6.32308448,35.6262083 C6.62517903,35.5512889 6.70009845,35.3241138 6.70009845,35.0606874 C6.70009845,34.797261 6.32308448,34.6450053 6.09590942,34.6836734 L3.52931437,35.2491944 C3.18271857,33.5208215 3.00545688,31.762774 3.00004476,30 C3.00004476,24.9393126 4.43559795,19.9559613 7.11578053,15.6879699 C7.49279451,15.915145 9.30536161,17.1597744 9.60745616,17.1597744 C9.8708826,17.1597744 10.0980577,16.9712675 10.0980577,16.707841 C10.0980577,16.1785714 8.09698354,15.1587002 7.64263335,14.8566058 C11.4949427,9.23039737 17.3483261,5.18958108 23.9944057,3.67910846 L24.5599266,6.20945219 C24.634846,6.51154674 24.8620211,6.58646617 25.1254475,6.58646617 C25.3888739,6.58646617 25.5411296,6.20945219 25.5024615,5.98227706 L24.9369406,3.4906015 C26.605764,3.17601059 28.2994527,3.01181823 29.997628,3 C35.0592868,3.00674897 40.0176432,4.43263226 44.309658,7.11573571 C44.0462316,7.49274968 42.8378535,9.26906547 42.8378535,9.57116002 C42.8378535,9.83458647 43.0263605,10.0617615 43.289787,10.0617615 C43.8190566,10.0617615 44.8389277,8.09935551 45.1023541,7.64500532 C50.7049466,11.4339057 54.6803294,17.1886798 56.2411833,23.7696026 L54.1265216,24.221536 C53.785759,24.2964554 53.7495077,24.5236305 53.7495077,24.825725 C53.7495077,25.0891514 54.1265216,25.2414071 54.3150287,25.202739 L56.4683584,24.7121375 C56.809121,26.4497851 56.997628,28.2236842 56.997628,29.9975832 L56.9952112,30.0024167 Z" id="Path" fill="url(#radialGradient-1)"></path>
                        <path d="M43.995,12.3878572 C42.9464286,13.3707143 37.3992857,18.5942857 27.3535714,28.0585714 L32.2757143,31.8428572 L43.995,12.3878572 Z" id="Path" fill="#F56C6C"></path>
                        <path d="M27.3535714,28.0585714 L15.6685714,47.4792857 C16.6957143,46.5192857 22.2314286,41.3071429 32.2757143,31.8428572 L27.3535714,28.0585714 Z" id="Path" fill="#DCDFE6"></path>
                    </g>
                </g>
            </g>
        </g>
    </g>
</svg>